<svg width="1894" height="429" viewBox="0 0 1894 429" fill="none" xmlns="http://www.w3.org/2000/svg">
<path d="M369.229 168.781C361.909 169.651 353.019 171.781 345.739 171.841C253.619 172.541 235.259 71.0609 171.949 25.7809C72.5285 -45.3491 -28.6915 41.7409 7.51851 153.001C25.6985 208.851 82.3785 256.391 139.219 269.121C224.739 288.271 301.859 247.191 356.749 184.761C361.178 179.721 365.329 174.231 369.239 168.781H369.229Z" fill="white"/>
<path d="M1862.97 76.1509C1838.31 80.3109 1838.13 121.201 1863.82 124.751C1904.1 130.321 1903.04 69.3909 1862.97 76.1509Z" fill="white"/>
<path d="M146.237 290.581C145.787 292.311 146.957 292.581 147.727 293.581C168.527 320.711 213.707 360.311 241.917 380.251C315.977 432.601 427.017 445.261 508.257 401.921C594.907 355.701 666.167 238.411 620.097 141.451C578.227 53.331 480.207 63.651 422.267 129.351C381.587 175.491 361.357 220.821 304.537 254.431C258.577 281.611 199.687 297.381 146.237 290.581Z" fill="white"/>
<path d="M1714.23 80.9109H1668.23V292.581H1714.23V206.221C1714.23 196.401 1722 175.131 1728.25 167.311C1737.89 155.241 1754.57 150.631 1767.24 161.291C1793.61 183.471 1778.36 259.701 1769.25 289.121C1766.31 298.601 1762.08 307.461 1759.15 316.921L1775.59 325.381C1801.2 300.971 1818.64 264.481 1824.75 229.711C1830.7 195.931 1827.24 153.351 1790.75 138.811C1762.85 127.691 1732.5 134.941 1714.23 158.801V80.9209V80.9109Z" fill="white"/>
<path d="M761.229 292.571C762.479 266.211 759.569 238.351 761.189 212.151C762.679 188.021 774.599 147.581 806.779 156.731C834.669 164.661 829.849 219.231 827.089 241.001C823.819 266.781 817.059 292.351 806.309 315.921L821.909 325.381C845.889 305.081 862.169 271.751 869.549 241.471C878.469 204.891 878.359 152.581 835.759 137.771C801.829 125.971 768.439 139.831 754.709 172.761L734.219 137.811H716.219V292.571H761.219H761.229Z" fill="white"/>
<path d="M1093.73 137.821H1076.23V292.581H1122.23C1123.58 262.571 1120.44 231.021 1122.19 201.181C1123.23 183.361 1128.27 149.031 1154.06 156.461C1168.88 160.731 1171.6 187.441 1172.27 200.181C1173.87 230.461 1170.99 262.161 1172.23 292.581H1217.23C1218.5 264.211 1215.54 234.391 1217.19 206.171C1218.33 186.611 1225.58 144.341 1254.9 157.621C1278.45 168.281 1271.17 225.931 1268.06 246.991C1264.56 270.731 1258.43 294.211 1248.31 315.951L1264.58 325.441C1299.46 292.881 1319.69 237.821 1316.26 190.211C1312.41 136.721 1255.41 114.081 1218.24 152.331L1209.23 165.781C1202.23 142.001 1179.33 132.051 1155.73 133.851C1131.7 135.691 1117.9 151.011 1110.72 172.771L1093.72 137.831L1093.73 137.821Z" fill="white"/>
<path d="M1621.25 182.741L1645.75 163.791L1647.27 161.281C1636.06 146.441 1612.67 137.581 1594.6 134.951C1555.43 129.261 1503.8 143.821 1510.49 192.971C1515.59 230.391 1577.53 228.491 1602.56 241.831C1617.7 249.901 1619.8 266.791 1602.49 273.371C1574.59 283.971 1549.11 269.601 1533.73 246.671L1508.42 266.781V269.461C1526.18 282.511 1543.99 293.881 1566.74 295.561C1602 298.161 1650.02 288.941 1651.24 245.111C1652.49 200.431 1590.8 201.861 1561.87 189.591C1554.02 186.261 1546.76 181.531 1546.29 172.121C1545.39 154.021 1571.56 151.531 1584.6 152.911C1601.29 154.671 1615.87 167.081 1621.24 182.741H1621.25Z" fill="white"/>
<path d="M1891.23 137.821H1846.23V292.581H1891.23V137.821Z" fill="white"/>
<path d="M146.237 290.581C199.687 297.381 258.567 281.621 304.537 254.431C361.357 220.831 381.577 175.491 422.267 129.351C480.207 63.651 578.227 53.331 620.097 141.451C666.167 238.411 594.907 355.701 508.257 401.921C427.017 445.261 315.977 432.601 241.917 380.251C213.707 360.311 168.527 320.711 147.727 293.581C146.957 292.581 145.787 292.321 146.237 290.581Z" fill="white"/>
<path d="M369.227 168.781C365.317 174.221 361.167 179.721 356.737 184.761C301.857 247.191 224.737 288.271 139.207 269.121C82.367 256.391 25.687 208.851 7.50699 153.001C-28.693 41.7409 72.527 -45.3491 171.957 25.7709C235.267 71.0609 253.627 172.531 345.747 171.831C353.027 171.771 361.917 169.641 369.237 168.771L369.227 168.781Z" fill="white"/>
<path d="M1093.73 137.821L1110.73 172.761C1117.91 151.001 1131.71 135.681 1155.74 133.841C1179.34 132.041 1202.23 141.991 1209.24 165.771L1218.25 152.321C1255.42 114.071 1312.42 136.711 1316.27 190.201C1319.69 237.801 1299.47 292.871 1264.59 325.431L1248.32 315.941C1258.44 294.201 1264.57 270.721 1268.07 246.981C1271.18 225.921 1278.45 168.271 1254.91 157.611C1225.58 144.331 1218.34 186.601 1217.2 206.161C1215.55 234.371 1218.52 264.191 1217.24 292.571H1172.24C1171 262.151 1173.88 230.451 1172.28 200.171C1171.61 187.441 1168.89 160.731 1154.07 156.451C1128.28 149.011 1123.24 183.341 1122.2 201.171C1120.46 231.011 1123.59 262.551 1122.24 292.571H1076.24V137.811H1093.74L1093.73 137.821Z" fill="white"/>
<path d="M1714.23 80.9109V158.791C1732.5 134.931 1762.85 127.681 1790.75 138.801C1827.23 153.341 1830.69 195.921 1824.75 229.701C1818.63 264.471 1801.2 300.961 1775.59 325.371L1759.15 316.911C1762.08 307.451 1766.31 298.591 1769.25 289.111C1778.36 259.691 1793.61 183.461 1767.24 161.281C1754.57 150.631 1737.9 155.241 1728.25 167.301C1721.99 175.131 1714.23 196.391 1714.23 206.211V292.571H1668.23V80.9109H1714.23Z" fill="white"/>
<path d="M1004.23 274.601L995.238 284.101C922.868 325.891 862.818 247.641 891.748 177.771C912.798 126.941 988.338 114.791 1011.74 169.781C1013.14 170.081 1013.42 168.961 1014.06 168.111C1020.81 159.171 1025.23 146.541 1032.73 137.821H1049.23V292.581H1004.23V274.611V274.601ZM960.998 156.051C925.758 161.191 926.798 228.521 937.378 252.991C949.338 280.631 981.208 281.561 995.058 254.951C1010.5 225.261 1009.75 148.931 960.998 156.051Z" fill="white"/>
<path d="M761.227 292.571H716.227V137.811H734.227L754.717 172.761C768.447 139.831 801.837 125.971 835.767 137.771C878.367 152.581 878.467 204.901 869.557 241.471C862.177 271.751 845.897 305.091 821.917 325.381L806.317 315.921C817.067 292.341 823.827 266.781 827.097 241.001C829.857 219.231 834.677 164.661 806.787 156.731C774.607 147.581 762.687 188.021 761.197 212.151C759.577 238.341 762.497 266.201 761.237 292.571H761.227Z" fill="white"/>
<path d="M1405.03 134.121C1521.43 124.821 1532.62 287.001 1421.72 295.551C1304.53 304.591 1292.77 143.091 1405.03 134.121ZM1412.02 152.071C1355.68 153.621 1360.29 293.861 1423.26 276.121C1465.46 264.231 1465.63 150.601 1412.02 152.071Z" fill="white"/>
<path d="M1621.25 182.741C1615.88 167.091 1601.31 154.671 1584.61 152.911C1571.57 151.531 1545.39 154.021 1546.3 172.121C1546.77 181.521 1554.03 186.251 1561.88 189.591C1590.81 201.861 1652.5 200.431 1651.25 245.111C1650.03 288.941 1602.01 298.161 1566.75 295.561C1544 293.881 1526.19 282.501 1508.44 269.461V266.781L1533.74 246.671C1549.12 269.601 1574.6 283.971 1602.5 273.371C1619.81 266.791 1617.7 249.901 1602.57 241.831C1577.54 228.491 1515.6 230.391 1510.5 192.971C1503.8 143.831 1555.44 129.271 1594.61 134.951C1612.68 137.571 1636.07 146.431 1647.28 161.281L1645.76 163.791L1621.26 182.741H1621.25Z" fill="white"/>
<path d="M1891.23 137.821H1846.23V292.581H1891.23V137.821Z" fill="white"/>
<path d="M1862.97 76.1509C1903.03 69.3909 1904.1 130.321 1863.82 124.751C1838.13 121.201 1838.31 80.3209 1862.97 76.1509Z" fill="white"/>
</svg>
