<svg width="682" height="468" viewBox="0 0 682 468" fill="none" xmlns="http://www.w3.org/2000/svg">
<path d="M17.2129 68.5723C39.9357 15.9155 102.033 -6.28549 152.319 11.5762C208.526 31.5412 235.561 73.2019 262.37 111.517C288.966 149.526 315.778 184.868 371.764 184.868C388.832 184.868 402.817 180.914 414.109 175.455C411.626 179.011 409.076 182.625 406.333 186.339C394.598 202.231 378.596 221.193 347.951 248.239C317.861 274.796 268.134 299.474 213.37 303.271C158.856 307.05 99.2918 290.167 48.752 233.533C9.63161 189.696 -7.9196 126.813 17.2129 68.5723Z" fill="url(#paint0_radial_1043_198)" stroke="url(#paint1_radial_1043_198)" stroke-width="11"/>
<path d="M151.16 308.149C217.189 326.674 317.09 291.939 363.781 247.014C410.472 202.089 418.258 183.274 445.16 149.393C487.787 95.7073 565.605 66.2652 621.667 107.893C704.722 169.564 685.253 292.608 629.66 362.393C533.732 482.81 412.683 474.376 323.084 445.703C244.182 420.452 151.16 308.149 151.16 308.149Z" fill="#0B2243"/>
<path d="M151.16 308.149C217.189 326.674 317.09 291.939 363.781 247.014C410.472 202.089 418.258 183.274 445.16 149.393C487.787 95.7073 565.605 66.2652 621.667 107.893C704.722 169.564 685.253 292.608 629.66 362.393C533.732 482.81 412.683 474.376 323.084 445.703C244.182 420.452 151.16 308.149 151.16 308.149Z" fill="url(#paint2_radial_1043_198)"/>
<path d="M151.16 308.149C217.189 326.674 317.09 291.939 363.781 247.014C410.472 202.089 418.258 183.274 445.16 149.393C487.787 95.7073 565.605 66.2652 621.667 107.893C704.722 169.564 685.253 292.608 629.66 362.393C533.732 482.81 412.683 474.376 323.084 445.703C244.182 420.452 151.16 308.149 151.16 308.149Z" stroke="url(#paint3_radial_1043_198)" stroke-width="8"/>
<defs>
<radialGradient id="paint0_radial_1043_198" cx="0" cy="0" r="1" gradientTransform="matrix(-364.057 -202.628 283.709 -633.072 343.556 227.393)" gradientUnits="userSpaceOnUse">
<stop stop-color="#4F3DFF"/>
<stop offset="1" stop-color="#050132"/>
</radialGradient>
<radialGradient id="paint1_radial_1043_198" cx="0" cy="0" r="1" gradientTransform="matrix(-364.057 -202.628 283.709 -633.072 343.556 227.393)" gradientUnits="userSpaceOnUse">
<stop stop-color="#050132"/>
<stop offset="1" stop-color="#4F3DFF"/>
</radialGradient>
<radialGradient id="paint2_radial_1043_198" cx="0" cy="0" r="1" gradientTransform="matrix(-608.306 -336.107 456.187 -1081.44 735.16 454.393)" gradientUnits="userSpaceOnUse">
<stop stop-color="#4F3DFF"/>
<stop offset="0.631947" stop-color="#050132"/>
</radialGradient>
<radialGradient id="paint3_radial_1043_198" cx="0" cy="0" r="1" gradientTransform="matrix(-431.615 -246.028 336.356 -768.666 558.47 364.313)" gradientUnits="userSpaceOnUse">
<stop stop-color="#050132"/>
<stop offset="1" stop-color="#4F3DFF"/>
</radialGradient>
</defs>
</svg>
